<svg width="160" height="121" xmlns="http://www.w3.org/2000/svg">
 <defs>
  <linearGradient x1="0.16116" x2="0.59863" y1="0.08347" y2="0.70195" id="imagebot_6">
   <stop id="imagebot_51" offset="0" stop-color="#8c8c8e"/>
   <stop id="imagebot_50" offset="1" stop-color="#333334"/>
  </linearGradient>
  <filter color-interpolation-filters="sRGB" id="imagebot_103">
   <feGaussianBlur stdDeviation="3" id="imagebot_134"/>
  </filter>
 </defs>
 <metadata id="imagebot_49">image/svg+xml</metadata>
 <g id="imagebot_2">
  <title>imagebot_2</title>
  <g transform="translate(106.294 111.249) matrix(2.69758 0 0 2.69758 -66.7404 -108.963)" id="imagebot_135">

   <g transform="matrix(0.0383251 0 0 0.0383251 0 0)" label="head" id="imagebot_99">
    <g transform="matrix(1.4154 0 0 1.4154 -137.71 -198.57)" id="imagebot_100">
     <g transform="translate(-.36450 -1.3422)" id="imagebot_120">
      <path stroke="#000000" stroke-width="1px" fill="#ddc1ac" d="M365.68,513.95L364.6698,548.295C373.4245,558.657 382.1788,553.8486 390.9338,551.3255L390.9338,510.9195L365.68,513.95z" id="imagebot_133"/>
      <path stroke="#000000" stroke-width="1px" fill="#e8e177" d="M347.86,551.29C331.11,560.71 313.79,569.03 310,603.43L326.071,603.78714L321.4281,639.14414L313.9281,680.21514C354.1191,712.32214 401.4521,702.29314 437.8581,679.50086L431.0724,641.28686L426.4295,609.50086L448.2155,608.42946C441.6755,575.02946 424.7655,561.65946 404.9955,553.77946C389.2415,560.08306 369.2895,557.29016 347.8525,551.27946L347.86,551.29z" id="imagebot_132"/>
      <path stroke="#000000" stroke-width="1px" fill="#859d45" d="M364.49,535.82L348.328,551.095C352.2765,565.014 355.3104,567.366 378.806,567.788C399.634,568.16199 400.92,563.2766 405.07,553.35L390.928,537.188L390.57086,549.84C381.38486,548.6933 373.77686,557.082 365.08286,549.60541L364.49,535.82z" id="imagebot_131"/>
      <path stroke="#000000" stroke-width="1px" fill="#859d45" d="M325.71,603.79L300,602.72C296.1937,610.339 295.4831,617.958 296.4286,625.577L322.4986,626.287L325.71,603.79z" id="imagebot_130"/>
      <path stroke="#000000" stroke-width="1px" fill="#859d45" d="M425.53,609.86L451.244,608.7886C455.0503,616.4076 455.7609,624.0266 454.8154,631.6456L428.7444,632.35988L425.53,609.86z" id="imagebot_129"/>
      <path stroke="#000000" stroke-width="1px" fill="#ddc1ac" d="M303.93,625.93C299.9063,636.287 302.1348,646.644 304.64429,657.001C307.79689,663.4384 311.61439,667.216 315.71529,669.858L323.21529,626.287L303.93,625.93z" id="imagebot_128"/>
      <path stroke="#000000" stroke-width="1px" fill="#ddc1ac" d="M448.54,631.83C452.5637,642.187 450.3352,652.544 447.82571,662.901C444.67311,669.3384 440.85561,673.116 436.75471,675.758L429.25471,632.187L448.54,631.83z" id="imagebot_127"/>
      <path stroke="#000000" stroke-width="1px" fill="#767d8d" d="M309.11,707.4L307.0897,715.4812L299.0085,716.4914C292.5639,723.2492 297.0225,724.5555 297.9983,727.6034L308.6053,731.644C299.3287,742.392 299.063,754.428 299.0089,766.494C283.9799,777.361 269.7809,788.608 286.3819,813.971L382.7819,823.8381C384.7673,808.0331 393.1399,782.7221 376.8053,776.0771L386.8943,757.6021C396.7592,771.7721 402.4213,792.7561 401.5363,814.9881L481.8473,825.0831L479.827,796.7991C467.847,789.8187 455.665,786.0651 444.977,758.4131L440.4313,735.1791L444.977,735.68418C447.0738,731.97418 449.4272,728.46938 444.977,719.52218L436.8958,720.02726L438.411,705.88526L309.11,707.4z" id="imagebot_126"/>
      <path stroke="#000000" stroke-width="1px" fill="#859d45" d="M318.57,680.93L308.213,679.8586C304.5103,689.4826 305.892,697.0726 306.7844,704.8586C351.8374,732.1556 397.5694,724.8486 443.5744,703.7872C445.3598,695.3111 444.40558,687.3832 441.4315,679.8582L432.5015,680.9282C393.2035,704.7192 355.0165,708.5072 318.5715,680.9282L318.57,680.93z" id="imagebot_125"/>
      <path stroke="#000000" stroke-width="1px" fill="#cbdfa0" d="M268.2,843.26L384.87,844.2701L384.87,881.1411L276.78,879.6259L268.2,843.26z" id="imagebot_124"/>
      <path stroke="#000000" stroke-width="1px" fill="#cbdfa0" d="M386.89,846.8L386.89,880.135L493.46,880.64008L493.46,847.81008L386.89,846.8z" id="imagebot_123"/>
      <path stroke="#000000" stroke-width="1px" fill="#7ba83f" d="M268.2,843.77C267.62866,834.0052 272.0356,825.214 286.888,814.476C322.843,788.481 349.86,797.405 371.236,812.9608C380.9533,820.0322 387.713,832.2488 384.873,844.7808L268.2,843.77z" id="imagebot_122"/>
      <path stroke="#000000" stroke-width="0.90063px" fill="#7ba83f" d="M492.92,847.51C493.58709,838.794 489.7213,830.869 476.406,821.04C444.171,797.246 419.516,804.793 399.88,818.3553C390.9535,824.5204 384.633,835.3293 387.02,846.5713L492.92,847.51z" id="imagebot_121"/>
     </g>
     <g id="imagebot_101">
      <path stroke="#080808" stroke-width="1px" fill="#ddc1ac" d="M248.57,256.65C216.626,282.811 177.185,300.137 248.57,448.08C238.6892,433.615 228.75,419.354 211.427,430.937C195.179,446.591 203.5563,456.563 211.427,466.651C222.776,477.283 229.359,468.8572 237.141,465.2224C224.885,495.8424 241.4805,510.1824 267.141,512.3654C359.81,542.9234 407.091,528.4344 455.001,512.3654C476.676,507.0619 495.676,494.6724 474.287,453.7944L495.716,452.3658C509.388,436.1758 512.96,419.9848 500.0017,403.7948C490.7784,401.7885 483.0497,408.7504 475.7157,418.0808C531.7007,365.2298 521.4057,300.3308 494.2867,232.3708C397.1957,191.5338 311.4667,187.3088 248.5767,256.6568L248.57,256.65z" id="imagebot_119"/>
      <g transform="translate(-.075653 2.0915)" id="imagebot_114">
       <g stroke="#858585" stroke-width="4" id="imagebot_116">
        <path stroke="#858585" stroke-width="4" fill="none" d="M286.43,464.51C292.53,453.42 303.24,453.1 315,455.22" id="imagebot_118"/>
        <path stroke="#858585" stroke-width="4" fill="none" d="M300,455.22C300.42996,479.694 310.415,489.836 322.143,497.363" id="imagebot_117"/>
       </g>
       <path stroke="#919191" stroke-width="4" fill="none" d="M393.57,306.65C372.227,351.565 372.227,395.057 379.284,438.08C389.668,431.2315 396.019,433.7927 400.713,440.2228C404.6523,450.5908 402.1584,454.5248 398.5701,457.3658C390.9511,464.3383 383.3321,461.8091 375.7131,459.5087" id="imagebot_115"/>
      </g>
      <g transform="translate(-1.7249 .88047)" id="imagebot_111">
       <path stroke="#b3b3b3" stroke-width="2" fill="#ffffff" transform="matrix(.93795 0 0 .97183 -28.494 7.6672)" d="M426.43,386.29A51.071,61.786 0 1 1 426.4133,384.7122" id="imagebot_113"/>
       <path stroke="#b3b3b3" stroke-width="2" fill="#ffffff" transform="matrix(.78598 0 0 .92262 122.12 21.385)" d="M426.43,386.29A51.071,61.786 0 1 1 426.4133,384.7122" id="imagebot_112"/>
      </g>
      <g transform="translate(-.19324 1.8464)" id="imagebot_108">
       <path stroke="#b3b3b3" stroke-width="2" fill="#000000" d="M340.71,413.79A11.071,17.857 0 1 1 340.16882,408.2753L329.63882,413.79L340.71,413.79z" id="imagebot_110"/>
       <path stroke="#b3b3b3" stroke-width="2" fill="#000000" d="M 425.3529977416992 398.79 A 11.071 17.857 0 1 1 424.8118177416992 393.2753 L 414.28181774169923 398.79 L 425.3529977416992 398.79 z" id="imagebot_109"/>
      </g>
      <path stroke="#000000" stroke-width="1px" fill="#8e694f" d="M222.14,297.32C274.536,268.332 346.6,251.477 487.85,277.32C471.802,320.821 450.809,364.124 480.7071,409.46L499.9931,404.46C532.2351,377.833 537.4601,335.308 529.0621,300.96C527.6342,295.1196 539.2431,298.3079 539.9921,292.3176C533.6308,245.2886 548.2564,179.1876 409.2821,160.8876C327.2461,150.0846 254.7521,195.1336 212.1421,276.5976C205.1595,253.9786 202.0101,231.3596 206.4278,208.7406C193.0358,215.3955 184.1438,229.4436 197.1421,279.4546C161.7671,285.9589 140.1911,303.5696 182.1421,372.3116L214.2851,428.0256C234.4801,418.9224 240.5421,436.0654 247.8561,450.8826L248.57038,355.1686C246.44148,329.2026 235.62338,311.9256 222.14138,297.3116L222.14,297.32z" id="imagebot_107"/>
      <g transform="translate(-.95303 .16759)" id="imagebot_104">
       <path stroke="#000000" stroke-width="1px" fill="#221816" d="M327.14,280.93L334.2828,304.501C310.9498,309.7776 287.6158,329.28 264.2828,343.072C280.9328,318.055 300.9838,296.44 327.1398,280.929L327.14,280.93z" id="imagebot_106"/>
       <path stroke="#000000" stroke-width="1px" fill="#443f43" d="M410.71,283.79L398.567,303.076C426.832,297.7706 446.053,308.7447 464.996,320.219C455.8731,301.347 442.479,285.678 410.71,283.79z" id="imagebot_105"/>
      </g>
      <path filter="url(#imagebot_103)" fill="#493127" d="M245.27,445.64C230.483,435.551 233.313,421.147 219.556,427.783C223.011,382.215 221.3755,337.43 200.27,295.643C241.057,263.345 284.108,255.958 326.7,243.5C375.789,237.2626 430.01,240.0143 486.7,247.0714L486.7,214.9284C486.7,178.7564 438.021,171.8104 410.986,158.4994C435.418,169.9394 447.615,154.8679 510.986,199.9284C534.69,231.0544 548.054,301.8684 525.986,294.2144C539.899,366.3564 508.552,399.5744 496.7,403.5044L482.414,405.6472C495.729,374.3242 505.367,338.3562 499.557,295.6472C496.3644,272.1782 446.885,268.1772 388.127,262.7902C330.547,266.6928 276.377,262.45469 222.417,297.0762C251.187,324.1042 243.541,390.1862 245.274,445.6462L245.27,445.64z" id="imagebot_102"/>
     </g>
    </g>
   </g>
   <metadata>image/svg+xmlOpenclipartalbert2012-08-18T07:40:09ready for schoolhttps://openclipart.org/detail/171795/albert-by-sammo241-171795sammo241boycartoonskidsschool</metadata>
  </g>
  <g id="imagebot_3" transform="translate(-0.32768 1.6384) matrix(0.468365 0 0 0.464839 -13.1309 -139.299)">
   <path d="M182.31073,357.92233C181.79893,357.92533 181.28746,357.94873 180.77753,357.99263C170.85486,358.69589 163.10956,365.65037 163.1091,376.68954C163.10863,387.7287 171.70552,396.32646 182.31073,396.32661C187.50942,396.31861 192.4827,396.75138 196.09394,393.01167L201.33417,393.01167C204.952,396.7582 209.93654,396.32605 215.14472,396.32661C225.74993,396.32646 234.34682,387.7287 234.34635,376.56771C234.34589,365.40671 226.14945,358.30757 215.8205,357.95552C215.59545,357.94052 215.37016,357.92942 215.14472,357.92232C215.12262,357.92293 215.10042,357.92332 215.07832,357.92432C215.05992,357.92428 215.04212,357.92232 215.02362,357.92232L182.43183,357.92232C182.40943,357.92232 182.38783,357.92432 182.36543,357.92432L182.31073,357.92233z" fill="#636365" id="imagebot_8"/>
   <path id="imagebot_7" fill="#313132" d="M 215.29534500247945 362.7011717485063 A 4.7834900000000005 4.7834900000000005 0 0 1 215.21914500247945 362.7031717485063 L 215.27384500247945 362.7031717485063 C 215.21534500247947 362.7051717485063 215.22344500247945 362.70417174850627 215.29534500247945 362.7011717485063 z M 182.31878500247947 362.7051717485063 C 181.94080500247946 362.7081717485063 181.56389500247946 362.7255717485063 181.18792500247946 362.7578717485063 A 4.7834900000000005 4.7834900000000005 0 0 1 181.11562500247945 362.7638717485063 C 173.23610500247946 363.3223317485063 167.89333500247946 367.8875017485063 167.89297500247946 376.68965174850626 C 167.89260500247946 385.24562174850627 174.29068500247945 391.5430617485063 182.31094500247946 391.54317174850627 C 185.04144500247946 391.5391717485063 187.38072500247947 391.5996717485063 189.07070500247946 391.3400417485063 C 190.76264500247947 391.0801517485063 191.67336500247947 390.7038717485063 192.65273500247946 389.68965174850626 A 4.7834900000000005 4.7834900000000005 0 0 1 196.09414500247945 388.2287217485063 L 201.33437500247945 388.2287217485063 A 4.7834900000000005 4.7834900000000005 0 0 1 204.77578500247947 389.68965174850626 C 205.75832500247947 390.7071417485063 206.67189500247946 391.0859117485063 208.36758500247947 391.34590174850626 C 210.06326500247945 391.6059017485063 212.40823500247947 391.5428717485063 215.14492500247945 391.54317174850627 C 223.16540500247947 391.5430617485063 229.56326500247945 385.2734617485063 229.56289500247945 376.5685617485063 C 229.56253500247945 367.7490517485063 223.88552500247945 363.0149817485063 215.65859500247947 362.7345817485063 A 4.7834900000000005 4.7834900000000005 0 0 1 215.50234500247947 362.7265817485063 C 215.35909500247945 362.7165817485063 215.21682500247945 362.7122817485063 215.07461500247945 362.7070817485063 C 215.05771500247945 362.7064617485063 215.04071500247946 362.7060817485063 215.02381500247947 362.7050817485063 L 182.43201500247946 362.7050817485063 C 182.68720500247946 362.7050817485063 182.66559500247945 362.7070817485063 182.36561500247947 362.7070817485063 A 4.7834900000000005 4.7834900000000005 0 0 1 182.31871500247945 362.7050817485063 L 182.31878500247947 362.7051717485063 z"/>
   <path id="imagebot_5" fill="url(#imagebot_6)" d="M215.29492,362.70117C215.26952,362.70202 215.24412,362.70317 215.21872,362.70317L215.27342,362.70317C215.21492,362.70517 215.22302,362.70417 215.29492,362.70117zM182.31836,362.70517C181.94038,362.70817 181.56347,362.72557 181.1875,362.75787L181.1152,362.76387C173.23568,363.32233 167.89291,367.8875 167.89255,376.68965C167.89218,385.24562 174.29026,391.54306 182.31052,391.54317C183.95646,391.54117 185.4351,391.55367 186.7402,391.51387C201.89426,385.18833 191.12815,370.15618 227.75583,369.10762C225.45999,365.08917 221.12995,362.92107 215.65817,362.73458C215.60607,362.73258 215.55396,362.73058 215.50192,362.72658C215.35867,362.71658 215.2164,362.71228 215.07419,362.70708C215.05729,362.70646 215.04029,362.70608 215.02339,362.70508L182.43159,362.70508C182.68678,362.70508 182.66517,362.70708 182.36519,362.70708C182.34959,362.70651 182.33399,362.70608 182.31829,362.70508L182.31836,362.70517z"/>
   <path id="imagebot_4" fill="none" stroke-width="1" stroke="#939393" d="M182.30664,359.56055C181.843,359.56355 181.3797,359.58525 180.91797,359.62505A1.63839,1.63839 0 0 1 180.89257,359.62705C171.66969,360.28072 164.74846,366.41658 164.74804,376.68955C164.74759,386.8782 172.5907,394.68746 182.31054,394.6876C184.95539,394.6836 187.42836,394.775 189.54882,394.44932C191.66985,394.12351 193.39338,393.44994 194.91601,391.87315A1.63839,1.63839 0 0 1 196.09374,391.37315L201.33397,391.37315A1.63839,1.63839 0 0 1 202.51171,391.87315C204.03758,393.4533 205.76513,394.12928 207.89061,394.45518C210.0161,394.78107 212.49501,394.68732 215.14452,394.6876C224.86444,394.68746 232.70746,386.88822 232.70702,376.56846C232.70659,366.20944 225.37265,359.91941 215.76366,359.5919A1.63839,1.63839 0 0 1 215.71096,359.5899C215.5243,359.5775 215.33883,359.5671 215.15236,359.5606C215.14736,359.56044 215.14336,359.56075 215.13866,359.5606A1.63839,1.63839 0 0 1 215.07426,359.5626C214.94419,359.56232 214.92806,359.5606 215.02346,359.5606L182.43166,359.5606C182.50436,359.5606 182.48276,359.5626 182.36526,359.5626A1.63839,1.63839 0 0 1 182.32036,359.5606L182.30666,359.5606L182.30664,359.56055z"/>
  </g>
 </g>
</svg>